<svg xmlns="http://www.w3.org/2000/svg" width="78" height="78" viewBox="0 0 78 78">
    <g data-name="그룹 467750">
        <path data-name="패스 9368" d="M137.009 12.386A12.386 12.386 0 1 1 124.623 0a12.386 12.386 0 0 1 12.386 12.386" transform="translate(-85.737 11.673)" style="fill:#7e6cfe"/>
        <path data-name="패스 9369" d="M51.108 423.39q.068-.935.07-1.889A25.589 25.589 0 1 0 0 421.5q0 .953.07 1.889z" transform="translate(13 -356.648)" style="fill:#e4e4eb"/>
        <g data-name="그룹 467749">
            <g data-name="그룹 357">
                <g data-name="그룹 306">
                    <g data-name="그룹 161">
                        <path data-name="패스 49" d="M14.91 0h-3.17a.341.341 0 0 0-.271.141.415.415 0 0 0-.025.035L9.551 2.26H5.712L3.819.177a.414.414 0 0 0-.025-.036A.341.341 0 0 0 3.523 0H.354A.372.372 0 0 0 0 .387v14.4a.372.372 0 0 0 .354.387h3.17a.341.341 0 0 0 .271-.141.414.414 0 0 0 .024-.033l1.893-2.083h3.839L11.444 15a.415.415 0 0 0 .025.035.341.341 0 0 0 .271.141h3.17a.372.372 0 0 0 .354-.387V.387A.372.372 0 0 0 14.91 0" transform="translate(31 45.418)" style="fill:#fff"/>
                    </g>
                </g>
            </g>
        </g>
    </g>
</svg>
