<svg xmlns="http://www.w3.org/2000/svg" width="78" height="78" viewBox="0 0 78 78">
    <g data-name="그룹 467753">
        <g data-name="그룹 467844">
            <path data-name="패스 9390" d="M19.625 7.765 13.121.609a1.276 1.276 0 0 0-.086-.123A1.17 1.17 0 0 0 12.1 0H1.217A1.278 1.278 0 0 0 0 1.331V50.8a1.278 1.278 0 0 0 1.216 1.33h10.892a1.172 1.172 0 0 0 .931-.484 1.367 1.367 0 0 0 .082-.113l6.5-7.156h6.6V7.765z" transform="translate(11 13.208)" style="fill:#e4e4eb"/>
            <path data-name="패스 9391" d="M76.638 0H65.747a1.172 1.172 0 0 0-.931.484 1.437 1.437 0 0 0-.086.12l-6.5 7.159h-6.596v36.614h6.593l6.5 7.156a1.436 1.436 0 0 0 .086.12 1.172 1.172 0 0 0 .931.484h10.894a1.279 1.279 0 0 0 1.216-1.33V1.33A1.278 1.278 0 0 0 76.638 0" transform="translate(-11.412 13.208)" style="fill:#7e6cfe"/>
        </g>
    </g>
</svg>
