<svg xmlns="http://www.w3.org/2000/svg" width="82" height="80" viewBox="0 0 82 80">
    <g data-name="그룹 467807">
        <g data-name="그룹 467810">
            <g data-name="그룹 467807">
                <path data-name="패스 9380" d="M38.285 22.234 29 58.62l12.36 16.332 12.182-16.2-8.585-36.516z"/>
            </g>
            <g data-name="그룹 467808">
                <g data-name="그룹 357">
                    <g data-name="그룹 306">
                        <g data-name="그룹 161">
                            <path data-name="패스 49" d="M18.283 2H14.4a.418.418 0 0 0-.333.173.509.509 0 0 0-.031.043l-2.324 2.555H7L4.683 2.217a.508.508 0 0 0-.031-.043A.418.418 0 0 0 4.32 2H.434A.456.456 0 0 0 0 2.474v13.9a.456.456 0 0 0 .434.474H4.32a.418.418 0 0 0 .333-.173.508.508 0 0 0 .031-.043L7 14.08h4.708l2.321 2.554a.508.508 0 0 0 .031.043.418.418 0 0 0 .333.173h3.887a.456.456 0 0 0 .434-.474V2.474A.456.456 0 0 0 18.283 2" transform="translate(32.31 4.342)" style="fill:#7e6cfe"/>
                        </g>
                    </g>
                </g>
            </g>
        </g>
    </g>
</svg>
