<svg xmlns="http://www.w3.org/2000/svg" width="82" height="80" viewBox="0 0 82 80">
    <g data-name="그룹 467816">
        <g data-name="그룹 467814">
            <g data-name="그룹 306">
                <g data-name="그룹 161">
                    <path data-name="패스 49" d="M62.1 0h-8.077a1 1 0 0 0-.691.261.823.823 0 0 0-.064.065l-6.527 8.061H16.259L9.731.326a.824.824 0 0 0-.063-.065A1 1 0 0 0 8.977 0H.9a.825.825 0 0 0-.9.714v26.572A.825.825 0 0 0 .9 28h8.077a1 1 0 0 0 .691-.261.824.824 0 0 0 .064-.065l6.527-8.061h30.482l6.527 8.061a.822.822 0 0 0 .064.065 1 1 0 0 0 .691.261H62.1a.825.825 0 0 0 .9-.714V.714A.825.825 0 0 0 62.1 0" transform="translate(10 26.342)" style="fill:#7e6cfe"/>
                </g>
            </g>
        </g>
    </g>
</svg>
