<svg xmlns="http://www.w3.org/2000/svg" width="80" height="81" viewBox="0 0 80 81">
    <defs>
        <clipPath id="20263sdfoa">
            <path data-name="사각형 6836" style="fill:#7e6cfe" d="M0 0h29.488v63.307H0z"/>
        </clipPath>
    </defs>
    <g data-name="그룹 467838">
        <g data-name="그룹 467828" transform="rotate(30 9.94 82.643)" style="clip-path:url(#20263sdfoa)">
            <path data-name="패스 9386" d="M.072 13.291A14.759 14.759 0 0 1 14.744 0a13.422 13.422 0 0 1 2.734.282 14.644 14.644 0 0 1 7.555 4.272 16.138 16.138 0 0 1 4.063 7.5 15.261 15.261 0 0 1 .393 3.428 3.686 3.686 0 1 1-7.372 0 8.621 8.621 0 0 0-2.293-5.722 6.958 6.958 0 0 0-5.08-2.388h-.17a7.378 7.378 0 0 0-7.2 7.368v44.881c0 .078 0 .156-.008.233A3.686 3.686 0 0 1 0 59.621V14.744q0-.735.072-1.453" style="fill:#7e6cfe"/>
        </g>
    </g>
</svg>
