<svg xmlns="http://www.w3.org/2000/svg" width="80" height="81" viewBox="0 0 80 81">
    <g data-name="그룹 467835">
        <g data-name="그룹 467825">
            <path data-name="패스 9384" d="M1947.909-3.005 1921.922 20v32.792a1.294 1.294 0 0 0 1.3 1.285h49.378a1.294 1.294 0 0 0 1.3-1.285V20z" transform="translate(-1907.922 15.392)" style="fill:#7e6cfe;fill-rule:evenodd"/>
            <g data-name="그룹 467823">
                <g data-name="그룹 357">
                    <g data-name="그룹 306">
                        <g data-name="그룹 161">
                            <path data-name="패스 49" d="M14.485 0h-3.079a.331.331 0 0 0-.263.137.4.4 0 0 0-.024.034L9.279 2.2H5.55L3.711.172a.4.4 0 0 0-.025-.035A.331.331 0 0 0 3.423 0H.343A.361.361 0 0 0 0 .376v13.988a.361.361 0 0 0 .343.376h3.08a.331.331 0 0 0 .263-.137.4.4 0 0 0 .024-.034l1.84-2.025h3.73l1.839 2.024a.4.4 0 0 0 .024.034.331.331 0 0 0 .263.137h3.079a.361.361 0 0 0 .343-.376V.376A.361.361 0 0 0 14.485 0" transform="translate(32.125 43.18)" style="fill:#f5f5f8"/>
                        </g>
                    </g>
                </g>
            </g>
        </g>
    </g>
</svg>
