<svg xmlns="http://www.w3.org/2000/svg" width="78" height="78" viewBox="0 0 78 78">
    <g data-name="그룹 467830">
        <g data-name="그룹 467833">
            <g data-name="그룹 467832">
                <path data-name="사각형 6839" transform="translate(11 19)" style="fill:#7e6cfe" d="M0 0h57v34H0z"/>
                <path data-name="선 743" transform="translate(11 59)" style="fill:none;stroke:#000;stroke-width:6px" d="M57 0H0"/>
                <g data-name="그룹 467830">
                    <g data-name="그룹 357">
                        <g data-name="그룹 306">
                            <g data-name="그룹 161">
                                <path data-name="패스 49" d="M13.914 0h-2.958a.318.318 0 0 0-.256.132.388.388 0 0 0-.023.033L8.913 2.109H5.331L3.564.165a.387.387 0 0 0-.023-.033A.318.318 0 0 0 3.288 0H.33A.347.347 0 0 0 0 .361V13.8a.347.347 0 0 0 .33.361h2.958a.318.318 0 0 0 .253-.132.386.386 0 0 0 .023-.033l1.766-1.944h3.583l1.766 1.944a.387.387 0 0 0 .023.033.318.318 0 0 0 .253.132h2.958a.347.347 0 0 0 .33-.361V.361A.347.347 0 0 0 13.914 0" transform="translate(32.094 28.879)" style="fill:#f5f5f8"/>
                            </g>
                        </g>
                    </g>
                </g>
            </g>
        </g>
    </g>
</svg>
