<svg xmlns="http://www.w3.org/2000/svg" width="83" height="80" viewBox="0 0 83 80">
    <g data-name="그룹 467818">
        <g data-name="그룹 467793">
            <path data-name="사각형 6832" d="M25.5 0A25.5 25.5 0 0 1 51 25.5V38H0V25.5A25.5 25.5 0 0 1 25.5 0z" transform="translate(4 18)" style="fill:#7e6cfe"/>
            <path data-name="사각형 6831" d="M74 62H4v-6h76a6 6 0 0 1-6 6z"/>
            <g data-name="그룹 467789">
                <g data-name="그룹 357">
                    <g data-name="그룹 306">
                        <g data-name="그룹 161">
                            <path data-name="패스 49" d="M14.286 0h-3.037a.327.327 0 0 0-.26.136.4.4 0 0 0-.024.034l-1.814 2H5.473L3.66.169a.4.4 0 0 0-.024-.033.327.327 0 0 0-.26-.136H.339A.356.356 0 0 0 0 .37v13.8a.356.356 0 0 0 .339.37h3.037a.327.327 0 0 0 .26-.136.4.4 0 0 0 .024-.034l1.814-2h3.678l1.814 2a.4.4 0 0 0 .024.034.327.327 0 0 0 .26.136h3.037a.356.356 0 0 0 .339-.37V.37a.356.356 0 0 0-.34-.37" transform="translate(22 31.838)" style="fill:#f5f5f8"/>
                        </g>
                    </g>
                </g>
            </g>
        </g>
    </g>
</svg>
