<svg xmlns="http://www.w3.org/2000/svg" width="78" height="78" viewBox="0 0 78 78">
    <g data-name="그룹 467085">
        <g data-name="그룹 467084">
            <path data-name="패스 4951" d="m66.172 30.016-5.987-2a27.134 27.134 0 0 0-3.8-9.17l2.824-5.646a1.629 1.629 0 0 0-.305-1.879l-2.946-2.94a1.629 1.629 0 0 0-1.879-.305L48.434 10.9a27.134 27.134 0 0 0-9.17-3.8l-2-5.987A1.627 1.627 0 0 0 35.724 0H31.56a1.627 1.627 0 0 0-1.544 1.112l-2 5.987a27.134 27.134 0 0 0-9.17 3.8L13.2 8.076a1.629 1.629 0 0 0-1.879.305l-2.94 2.945a1.629 1.629 0 0 0-.305 1.874l2.824 5.65a27.134 27.134 0 0 0-3.8 9.17l-5.987 2A1.627 1.627 0 0 0 0 31.56v4.164a1.627 1.627 0 0 0 1.112 1.544l5.987 2a27.135 27.135 0 0 0 3.8 9.17l-2.823 5.641a1.629 1.629 0 0 0 .305 1.879l1.472 1.472 1.473 1.47a1.629 1.629 0 0 0 1.879.305l5.645-2.822a27.135 27.135 0 0 0 9.17 3.8l2 5.987a1.627 1.627 0 0 0 1.544 1.112h4.164a1.627 1.627 0 0 0 1.544-1.112l2-5.987a27.135 27.135 0 0 0 9.17-3.8l5.645 2.822a1.629 1.629 0 0 0 1.879-.305l1.472-1.472 1.462-1.47a1.629 1.629 0 0 0 .305-1.879l-2.822-5.645a27.135 27.135 0 0 0 3.8-9.17l5.987-2a1.627 1.627 0 0 0 1.112-1.544v-4.16a1.627 1.627 0 0 0-1.112-1.544M33.642 53.654a20.012 20.012 0 1 1 20.012-20.012 20.011 20.011 0 0 1-20.012 20.012" style="fill:#7e6cfe" transform="translate(5 5)"/>
            <path data-name="패스 4952" d="M476.759 462.607a14.152 14.152 0 1 0 14.152 14.152 14.152 14.152 0 0 0-14.152-14.152m0 21.8a7.645 7.645 0 1 1 7.645-7.645 7.646 7.646 0 0 1-7.645 7.645" transform="translate(-438.116 -438.117)" style="fill:#e8eaf3"/>
        </g>
    </g>
</svg>
