<svg xmlns="http://www.w3.org/2000/svg" width="78" height="78" viewBox="0 0 78 78">
    <g data-name="그룹 467091">
        <g data-name="그룹 467080">
            <path data-name="패스 4953" d="M33.821 64.921a30.916 30.916 0 0 1-17.135-5.134L3.632 63.5l3.757-13.214a31.2 31.2 0 1 1 26.432 14.635z" transform="translate(5.381 5.5)" style="fill:#7e6cfe"/>
            <g data-name="그룹 467055">
                <g data-name="그룹 357">
                    <g data-name="그룹 306">
                        <g data-name="그룹 161">
                            <path data-name="패스 49" d="M21.223 0h-4.511a.485.485 0 0 0-.386.2.591.591 0 0 0-.036.05L13.6 3.217H8.131L5.437.252A.59.59 0 0 0 5.4.2a.485.485 0 0 0-.385-.2H.5a.529.529 0 0 0-.5.55v20.5a.529.529 0 0 0 .5.55h4.515a.485.485 0 0 0 .386-.2.589.589 0 0 0 .036-.05l2.695-2.965H13.6l2.695 2.965a.591.591 0 0 0 .036.05.485.485 0 0 0 .386.2h4.512a.529.529 0 0 0 .5-.55V.55a.529.529 0 0 0-.5-.55" transform="translate(28 28)" style="fill:#fff"/>
                        </g>
                    </g>
                </g>
            </g>
        </g>
    </g>
</svg>
