<svg xmlns="http://www.w3.org/2000/svg" width="78" height="78" viewBox="0 0 78 78">
    <defs>
        <clipPath id="v7gzzzvd0a">
            <path data-name="사각형 6623" style="fill:none" d="M0 0h45.492v53.707H0z"/>
        </clipPath>
        <clipPath id="u9uhxlof7b">
            <path data-name="사각형 6627" style="fill:#e8eaf3" d="M0 0h18.591v16.45H0z"/>
        </clipPath>
    </defs>
    <g data-name="그룹 467104">
        <g data-name="그룹 467086">
            <g data-name="그룹 467051">
                <g data-name="그룹 467041">
                    <g data-name="그룹 467040" style="clip-path:url(#v7gzzzvd0a)" transform="translate(17 2)">
                        <path data-name="패스 4958" d="M45.492 22.746A22.746 22.746 0 1 0 4.2 35.913c3.17 5.29 7.2 10.909 7.2 16.706v.331a.759.759 0 0 0 .756.756h21.179a.759.759 0 0 0 .756-.756v-.33c0-6.132 4.286-11.757 7.46-17.079a22.636 22.636 0 0 0 3.94-12.795" style="fill:#7e6cfe"/>
                    </g>
                </g>
                <g data-name="그룹 467042">
                    <g data-name="그룹 357">
                        <g data-name="그룹 306">
                            <g data-name="그룹 161">
                                <path data-name="패스 49" d="M21.223 0h-4.511a.485.485 0 0 0-.386.2.591.591 0 0 0-.036.05L13.6 3.217H8.131L5.437.252A.59.59 0 0 0 5.4.2a.485.485 0 0 0-.385-.2H.5a.529.529 0 0 0-.5.55v20.5a.529.529 0 0 0 .5.55h4.515a.485.485 0 0 0 .386-.2.589.589 0 0 0 .036-.05l2.695-2.965H13.6l2.695 2.965a.591.591 0 0 0 .036.05.485.485 0 0 0 .386.2h4.512a.529.529 0 0 0 .5-.55V.55a.529.529 0 0 0-.5-.55" transform="translate(28.883 18.056)" style="fill:#fff"/>
                            </g>
                        </g>
                    </g>
                </g>
            </g>
            <g data-name="그룹 467053">
                <g data-name="그룹 467052" style="clip-path:url(#u9uhxlof7b)" transform="translate(31 58.971)">
                    <path data-name="패스 4964" d="M28.74 62.765a4.121 4.121 0 0 0 4.118-4.111h-8.229a4.112 4.112 0 0 0 4.111 4.111" transform="translate(-19.448 -46.314)" style="fill:#e8eaf3"/>
                    <path data-name="패스 4965" d="M16.762 6.1h-5.613l6.306-2.574h.008a1.828 1.828 0 0 0 .24-.129c.026-.014.056-.026.081-.043s.031-.026.048-.038a1.875 1.875 0 0 0 .4-.4c.015-.021.036-.041.05-.062a1.688 1.688 0 0 0 .1-.19c.022-.041.049-.079.067-.121a1.938 1.938 0 0 0 .1-.338c0-.019 0-.038.006-.055a1.779 1.779 0 0 0 .031-.31v-.007c0-.036-.008-.069-.011-.1a1.8 1.8 0 0 0-.025-.248 1.7 1.7 0 0 0-.069-.234c-.012-.036-.017-.072-.031-.1v-.007a1.717 1.717 0 0 0-.134-.255c-.016-.034-.022-.06-.036-.082a1.577 1.577 0 0 0-.114-.138A1.747 1.747 0 0 0 17.885.4c-.035-.028-.065-.06-.1-.086s-.075-.042-.11-.062a1.868 1.868 0 0 0-.5-.2c-.012 0-.021-.007-.033-.009-.038-.007-.08-.007-.119-.012a2.073 2.073 0 0 0-.25-.031H1.829a1.829 1.829 0 1 0 0 3.658h5.614L1.137 6.233h-.008a1.5 1.5 0 0 0-.238.126c-.027.017-.058.028-.084.045l-.026.022a1.818 1.818 0 0 0-.424.419c-.014.019-.032.036-.045.055a1.712 1.712 0 0 0-.106.2c-.02.038-.045.076-.063.117a1.837 1.837 0 0 0-.1.338c0 .017 0 .033-.006.05A1.821 1.821 0 0 0 0 7.919v.007c0 .036.008.069.011.1a1.766 1.766 0 0 0 .025.248A1.947 1.947 0 0 0 .1 8.51c.012.036.018.071.032.107a1.779 1.779 0 0 0 .251.422c.024.031.049.062.075.091a1.808 1.808 0 0 0 .35.314.157.157 0 0 1 .03.017 1.825 1.825 0 0 0 .4.186c.037.015.073.024.111.036a1.862 1.862 0 0 0 .463.067h14.95a1.829 1.829 0 0 0 0-3.658" style="fill:#e8eaf3"/>
                </g>
            </g>
        </g>
    </g>
</svg>
